<svg width="36" height="36" viewBox="0 0 36 36" fill="none" xmlns="http://www.w3.org/2000/svg">
<g clip-path="url(#clip0_245_2642)">
<path d="M30.3812 13.625C29.6416 11.5349 28.3846 9.66621 26.7274 8.19332C25.0703 6.72042 23.067 5.69132 20.9046 5.20204C18.7421 4.71276 16.491 4.77925 14.3612 5.39529C12.2314 6.01134 10.2923 7.15687 8.72498 8.725L1.95831 15.0833M34.0416 20.9167L27.275 27.275C25.7076 28.8431 23.7686 29.9887 21.6388 30.6047C19.509 31.2208 17.2578 31.2872 15.0954 30.798C12.9329 30.3087 10.9297 29.2796 9.27253 27.8067C7.61538 26.3338 6.35835 24.4651 5.61873 22.375" stroke="#154962" stroke-width="2" stroke-linecap="round" stroke-linejoin="round"/>
<path d="M33.6215 29.4144V20.8536H25.1006" stroke="#154962" stroke-width="2" stroke-linecap="round" stroke-linejoin="round"/>
<path d="M2.37848 6.58563V15.1464H10.8993" stroke="#154962" stroke-width="2" stroke-linecap="round" stroke-linejoin="round"/>
</g>
<defs>
<clipPath id="clip0_245_2642">
<rect x="0.958313" y="0.878448" width="34.0833" height="34.2431" fill="white"/>
</clipPath>
</defs>
</svg>
