<svg width="34" height="34" viewBox="0 0 34 34" fill="none" xmlns="http://www.w3.org/2000/svg">
<path d="M25.5 9.91664H25.0042C25.3275 9.25472 25.497 8.52829 25.5 7.79164C25.5043 6.80468 25.2131 5.83903 24.6639 5.01898C24.1147 4.19893 23.3326 3.56202 22.4184 3.19022C21.5041 2.81842 20.4995 2.72876 19.5339 2.93277C18.5682 3.13679 17.6857 3.62514 17 4.33497C16.3143 3.62514 15.4318 3.13679 14.4661 2.93277C13.5005 2.72876 12.4959 2.81842 11.5816 3.19022C10.6674 3.56202 9.8853 4.19893 9.3361 5.01898C8.78691 5.83903 8.49571 6.80468 8.5 7.79164C8.50302 8.52829 8.67252 9.25472 8.99583 9.91664H8.5C7.37283 9.91664 6.29183 10.3644 5.4948 11.1614C4.69777 11.9585 4.25 13.0395 4.25 14.1666V17C4.25 17.3757 4.39926 17.736 4.66493 18.0017C4.93061 18.2674 5.29094 18.4166 5.66667 18.4166H7.08333V26.9166C7.08333 28.0438 7.5311 29.1248 8.32813 29.9218C9.12516 30.7189 10.2062 31.1666 11.3333 31.1666H22.6667C23.7938 31.1666 24.8748 30.7189 25.6719 29.9218C26.4689 29.1248 26.9167 28.0438 26.9167 26.9166V18.4166H28.3333C28.7091 18.4166 29.0694 18.2674 29.3351 18.0017C29.6007 17.736 29.75 17.3757 29.75 17V14.1666C29.75 13.0395 29.3022 11.9585 28.5052 11.1614C27.7082 10.3644 26.6272 9.91664 25.5 9.91664ZM15.5833 28.3333H11.3333C10.9576 28.3333 10.5973 28.1841 10.3316 27.9184C10.0659 27.6527 9.91667 27.2924 9.91667 26.9166V18.4166H15.5833V28.3333ZM15.5833 15.5833H7.08333V14.1666C7.08333 13.7909 7.23259 13.4306 7.49827 13.1649C7.76394 12.8992 8.12428 12.75 8.5 12.75H15.5833V15.5833ZM15.5833 9.91664H13.4583C13.038 9.91664 12.6272 9.79201 12.2777 9.55851C11.9283 9.32501 11.6559 8.99313 11.4951 8.60484C11.3343 8.21655 11.2922 7.78928 11.3742 7.37707C11.4562 6.96486 11.6585 6.58622 11.9557 6.28904C12.2529 5.99185 12.6316 5.78946 13.0438 5.70747C13.456 5.62548 13.8832 5.66756 14.2715 5.82839C14.6598 5.98923 14.9917 6.2616 15.2252 6.61105C15.4587 6.96051 15.5833 7.37135 15.5833 7.79164V9.91664ZM18.4167 7.79164C18.4167 7.37135 18.5413 6.96051 18.7748 6.61105C19.0083 6.2616 19.3402 5.98923 19.7285 5.82839C20.1168 5.66756 20.544 5.62548 20.9562 5.70747C21.3684 5.78946 21.7471 5.99185 22.0443 6.28904C22.3415 6.58622 22.5438 6.96486 22.6258 7.37707C22.7078 7.78928 22.6657 8.21655 22.5049 8.60484C22.3441 8.99313 22.0717 9.32501 21.7223 9.55851C21.3728 9.79201 20.962 9.91664 20.5417 9.91664H18.4167V7.79164ZM24.0833 26.9166C24.0833 27.2924 23.9341 27.6527 23.6684 27.9184C23.4027 28.1841 23.0424 28.3333 22.6667 28.3333H18.4167V18.4166H24.0833V26.9166ZM26.9167 15.5833H18.4167V12.75H25.5C25.8757 12.75 26.2361 12.8992 26.5017 13.1649C26.7674 13.4306 26.9167 13.7909 26.9167 14.1666V15.5833Z" fill="#154962"/>
</svg>
