<svg width="36" height="36" viewBox="0 0 36 36" fill="none" xmlns="http://www.w3.org/2000/svg">
<path d="M13.625 15.0833C13.2382 15.0833 12.8673 15.237 12.5938 15.5105C12.3203 15.784 12.1666 16.1549 12.1666 16.5417V19.4583C12.1666 19.8451 12.3203 20.216 12.5938 20.4895C12.8673 20.763 13.2382 20.9167 13.625 20.9167C14.0117 20.9167 14.3827 20.763 14.6562 20.4895C14.9296 20.216 15.0833 19.8451 15.0833 19.4583V16.5417C15.0833 16.1549 14.9296 15.784 14.6562 15.5105C14.3827 15.237 14.0117 15.0833 13.625 15.0833ZM31.125 16.5417C31.5117 16.5417 31.8827 16.388 32.1562 16.1145C32.4296 15.841 32.5833 15.4701 32.5833 15.0833V9.25C32.5833 8.86323 32.4296 8.49229 32.1562 8.2188C31.8827 7.94531 31.5117 7.79167 31.125 7.79167H4.87496C4.48819 7.79167 4.11725 7.94531 3.84376 8.2188C3.57027 8.49229 3.41663 8.86323 3.41663 9.25V15.0833C3.41663 15.4701 3.57027 15.841 3.84376 16.1145C4.11725 16.388 4.48819 16.5417 4.87496 16.5417C5.26173 16.5417 5.63267 16.6953 5.90616 16.9688C6.17965 17.2423 6.33329 17.6132 6.33329 18C6.33329 18.3868 6.17965 18.7577 5.90616 19.0312C5.63267 19.3047 5.26173 19.4583 4.87496 19.4583C4.48819 19.4583 4.11725 19.612 3.84376 19.8855C3.57027 20.159 3.41663 20.5299 3.41663 20.9167V26.75C3.41663 27.1368 3.57027 27.5077 3.84376 27.7812C4.11725 28.0547 4.48819 28.2083 4.87496 28.2083H31.125C31.5117 28.2083 31.8827 28.0547 32.1562 27.7812C32.4296 27.5077 32.5833 27.1368 32.5833 26.75V20.9167C32.5833 20.5299 32.4296 20.159 32.1562 19.8855C31.8827 19.612 31.5117 19.4583 31.125 19.4583C30.7382 19.4583 30.3673 19.3047 30.0938 19.0312C29.8203 18.7577 29.6666 18.3868 29.6666 18C29.6666 17.6132 29.8203 17.2423 30.0938 16.9688C30.3673 16.6953 30.7382 16.5417 31.125 16.5417ZM29.6666 13.8875C28.822 14.194 28.0923 14.7532 27.5766 15.489C27.0609 16.2248 26.7843 17.1015 26.7843 18C26.7843 18.8985 27.0609 19.7752 27.5766 20.511C28.0923 21.2468 28.822 21.806 29.6666 22.1125V25.2917H15.0833C15.0833 24.9049 14.9296 24.534 14.6562 24.2605C14.3827 23.987 14.0117 23.8333 13.625 23.8333C13.2382 23.8333 12.8673 23.987 12.5938 24.2605C12.3203 24.534 12.1666 24.9049 12.1666 25.2917H6.33329V22.1125C7.17789 21.806 7.90762 21.2468 8.42332 20.511C8.93901 19.7752 9.21565 18.8985 9.21565 18C9.21565 17.1015 8.93901 16.2248 8.42332 15.489C7.90762 14.7532 7.17789 14.194 6.33329 13.8875V10.7083H12.1666C12.1666 11.0951 12.3203 11.466 12.5938 11.7395C12.8673 12.013 13.2382 12.1667 13.625 12.1667C14.0117 12.1667 14.3827 12.013 14.6562 11.7395C14.9296 11.466 15.0833 11.0951 15.0833 10.7083H29.6666V13.8875Z" fill="#154962"/>
</svg>
