<svg width="25" height="25" viewBox="0 0 25 25" fill="none" xmlns="http://www.w3.org/2000/svg">
<path d="M18.4868 17.7385H6.93361C6.75835 17.7385 6.58865 17.677 6.4541 17.5647C6.31954 17.4524 6.22867 17.2964 6.19732 17.124L3.69948 3.38588C3.66813 3.21345 3.57726 3.05749 3.4427 2.9452C3.30815 2.8329 3.13845 2.77139 2.9632 2.77139H1.27466" stroke="#F2F3F3" stroke-width="1.84211" stroke-linecap="round" stroke-linejoin="round"/>
<path d="M7.26151 21.4803C8.29478 21.4803 9.1324 20.6426 9.1324 19.6094C9.1324 18.5761 8.29478 17.7385 7.26151 17.7385C6.22825 17.7385 5.39062 18.5761 5.39062 19.6094C5.39062 20.6426 6.22825 21.4803 7.26151 21.4803Z" stroke="#F2F3F3" stroke-width="1.84211" stroke-linecap="round" stroke-linejoin="round"/>
<path d="M18.4869 21.4803C19.5201 21.4803 20.3577 20.6426 20.3577 19.6094C20.3577 18.5761 19.5201 17.7385 18.4869 17.7385C17.4536 17.7385 16.616 18.5761 16.616 19.6094C16.616 20.6426 17.4536 21.4803 18.4869 21.4803Z" stroke="#F2F3F3" stroke-width="1.84211" stroke-linecap="round" stroke-linejoin="round"/>
<path d="M4.26807 6.51315H20.5836C20.6932 6.51315 20.8014 6.53723 20.9007 6.58369C21 6.63014 21.0879 6.69784 21.1581 6.782C21.2283 6.86616 21.2792 6.96471 21.3072 7.0707C21.3351 7.1767 21.3394 7.28753 21.3198 7.39538L20.0953 14.1306C20.0639 14.303 19.973 14.459 19.8385 14.5713C19.7039 14.6836 19.5342 14.7451 19.359 14.7451H5.76478" stroke="#F2F3F3" stroke-width="1.84211" stroke-linecap="round" stroke-linejoin="round"/>
</svg>
