<svg width="34" height="35" viewBox="0 0 34 35" fill="none" xmlns="http://www.w3.org/2000/svg">
<path d="M1.41663 18.2083V25.2917C1.41663 25.6674 1.56588 26.0277 1.83156 26.2934C2.09723 26.5591 2.45757 26.7083 2.83329 26.7083H4.24996C4.24996 27.8355 4.69773 28.9165 5.49476 29.7135C6.29179 30.5106 7.37279 30.9583 8.49996 30.9583C9.62713 30.9583 10.7081 30.5106 11.5052 29.7135C12.3022 28.9165 12.75 27.8355 12.75 26.7083H21.25C21.25 27.8355 21.6977 28.9165 22.4948 29.7135C23.2918 30.5106 24.3728 30.9583 25.5 30.9583C26.6271 30.9583 27.7081 30.5106 28.5052 29.7135C29.3022 28.9165 29.75 27.8355 29.75 26.7083H31.1666C31.5423 26.7083 31.9027 26.5591 32.1684 26.2934C32.434 26.0277 32.5833 25.6674 32.5833 25.2917V8.29167C32.5833 7.1645 32.1355 6.08349 31.3385 5.28646C30.5415 4.48943 29.4605 4.04167 28.3333 4.04167H15.5833C14.4561 4.04167 13.3751 4.48943 12.5781 5.28646C11.7811 6.08349 11.3333 7.1645 11.3333 8.29167V11.125H8.49996C7.84017 11.125 7.18944 11.2786 6.5993 11.5737C6.00917 11.8688 5.49583 12.2972 5.09996 12.825L1.69996 17.3583C1.65852 17.4199 1.62519 17.4866 1.60079 17.5567L1.51579 17.7125C1.45327 17.8705 1.41968 18.0384 1.41663 18.2083ZM24.0833 26.7083C24.0833 26.4281 24.1664 26.1542 24.322 25.9213C24.4777 25.6883 24.699 25.5067 24.9578 25.3995C25.2167 25.2923 25.5015 25.2642 25.7763 25.3189C26.0511 25.3735 26.3036 25.5085 26.5017 25.7066C26.6998 25.9047 26.8347 26.1571 26.8894 26.432C26.9441 26.7068 26.916 26.9916 26.8088 27.2505C26.7016 27.5093 26.52 27.7306 26.287 27.8862C26.054 28.0419 25.7801 28.125 25.5 28.125C25.1242 28.125 24.7639 27.9757 24.4982 27.7101C24.2325 27.4444 24.0833 27.0841 24.0833 26.7083ZM14.1666 8.29167C14.1666 7.91594 14.3159 7.55561 14.5816 7.28993C14.8472 7.02426 15.2076 6.875 15.5833 6.875H28.3333C28.709 6.875 29.0694 7.02426 29.335 7.28993C29.6007 7.55561 29.75 7.91594 29.75 8.29167V23.875H28.645C28.2466 23.4367 27.7611 23.0866 27.2195 22.847C26.6779 22.6074 26.0922 22.4836 25.5 22.4836C24.9077 22.4836 24.322 22.6074 23.7804 22.847C23.2388 23.0866 22.7533 23.4367 22.355 23.875H14.1666V8.29167ZM11.3333 16.7917H5.66663L7.36663 14.525C7.49858 14.3491 7.66969 14.2063 7.86641 14.1079C8.06312 14.0095 8.28003 13.9583 8.49996 13.9583H11.3333V16.7917ZM7.08329 26.7083C7.08329 26.4281 7.16638 26.1542 7.32204 25.9213C7.47771 25.6883 7.69896 25.5067 7.95782 25.3995C8.21669 25.2923 8.50153 25.2642 8.77634 25.3189C9.05114 25.3735 9.30357 25.5085 9.50169 25.7066C9.69982 25.9047 9.83474 26.1571 9.88941 26.432C9.94407 26.7068 9.91601 26.9916 9.80879 27.2505C9.70156 27.5093 9.51999 27.7306 9.28702 27.8862C9.05405 28.0419 8.78015 28.125 8.49996 28.125C8.12424 28.125 7.7639 27.9757 7.49822 27.7101C7.23255 27.4444 7.08329 27.0841 7.08329 26.7083ZM4.24996 19.625H11.3333V23.5633C10.4972 22.8161 9.39973 22.4296 8.27994 22.488C7.16015 22.5463 6.1088 23.0449 5.35496 23.875H4.24996V19.625Z" fill="#154962"/>
</svg>
