<svg width="132" height="57" viewBox="0 0 132 57" fill="none" xmlns="http://www.w3.org/2000/svg">
<path d="M34.055 46C32.7726 46 31.5949 45.8037 30.5219 45.4112C29.4751 45.0186 28.6376 44.4297 28.0095 43.6446C27.3814 42.8333 27.0674 41.8126 27.0674 40.5826C27.0674 39.5358 27.3814 38.6459 28.0095 37.9132C28.6376 37.1804 29.4751 36.6177 30.5219 36.2251C31.5949 35.8326 32.7726 35.6363 34.055 35.6363C34.814 35.6363 35.5075 35.7017 36.1356 35.8326C36.7637 35.9372 37.1955 36.0681 37.4311 36.2251C37.4311 35.6232 37.1825 35.0998 36.6852 34.6549C36.188 34.1838 35.3243 33.9483 34.0943 33.9483C33.5185 33.9483 33.0605 34.0006 32.7203 34.1053C32.4062 34.1838 32.1184 34.2885 31.8567 34.4193C31.5949 34.5502 31.294 34.668 30.9538 34.7726C30.6397 34.8512 30.2079 34.8904 29.6583 34.8904C28.847 34.8904 28.1927 34.681 27.6955 34.2623C27.2244 33.8174 26.9888 33.15 26.9888 32.2602C26.9888 31.4489 27.2113 30.7554 27.6562 30.1796C28.1273 29.5777 28.7292 29.0804 29.462 28.6879C30.1948 28.2953 30.9799 28.0074 31.8174 27.8242C32.681 27.641 33.5054 27.5494 34.2906 27.5494C36.6198 27.5494 38.5172 27.9813 39.9827 28.8449C41.4483 29.6824 42.5344 30.7816 43.241 32.1425C43.9477 33.5033 44.301 34.982 44.301 36.5784C44.301 37.4683 44.2225 38.2926 44.0654 39.0516C43.9346 39.8106 43.7514 40.3994 43.5158 40.8181C43.8822 41.1322 44.157 41.4986 44.3402 41.9173C44.5496 42.3361 44.6543 42.7679 44.6543 43.2128C44.6543 43.9456 44.4056 44.5999 43.9084 45.1756C43.4373 45.7252 42.7569 46 41.8671 46C41.1866 46 40.6501 45.8953 40.2575 45.6859C39.865 45.4766 39.4724 45.2018 39.0798 44.8616C38.4517 45.228 37.7582 45.5158 36.9993 45.7252C36.2403 45.9084 35.2589 46 34.055 46ZM34.8401 42.0351C35.4421 42.0351 35.887 41.9173 36.1749 41.6818C36.4889 41.4201 36.6459 41.1322 36.6459 40.8181C36.6459 40.5041 36.4889 40.2293 36.1749 39.9938C35.887 39.732 35.4421 39.6012 34.8401 39.6012C34.2644 39.6012 33.8195 39.732 33.5054 39.9938C33.1914 40.2293 33.0343 40.5041 33.0343 40.8181C33.0343 41.1322 33.1914 41.4201 33.5054 41.6818C33.8195 41.9173 34.2644 42.0351 34.8401 42.0351ZM57.2933 46C56.3773 46 55.4483 45.8168 54.5061 45.4504C53.564 45.084 52.7134 44.5475 51.9544 43.8409C51.2217 43.1343 50.6852 42.2837 50.3449 41.2892C50.1094 40.6349 49.9393 39.8236 49.8346 38.8553C49.7299 37.887 49.6514 36.8532 49.5991 35.7541C49.5729 34.6549 49.5598 33.5819 49.5598 32.535C48.5391 32.5088 47.5577 32.4172 46.6156 32.2602C45.6996 32.1032 44.9406 31.8153 44.3387 31.3966C43.7629 30.9517 43.475 30.3105 43.475 29.473C43.475 28.4523 43.7498 27.6934 44.2994 27.1961C44.849 26.6727 45.5818 26.3325 46.4978 26.1755C47.44 25.9923 48.4606 25.8876 49.5598 25.8614C49.586 25.0501 49.6514 24.2257 49.7561 23.3883C49.8869 22.5246 50.0963 21.7264 50.3842 20.9936C50.6721 20.2608 51.0777 19.672 51.6011 19.2271C52.1246 18.756 52.805 18.5204 53.6425 18.5204C54.7678 18.5204 55.5791 18.8738 56.0764 19.5804C56.5998 20.287 56.9269 21.203 57.0578 22.3283C57.1887 23.4537 57.241 24.6314 57.2148 25.8614C58.5757 25.8352 59.7796 25.8876 60.8264 26.0184C61.8733 26.1493 62.6976 26.4372 63.2996 26.8821C63.9015 27.327 64.2025 28.0336 64.2025 29.0019C64.2025 29.9964 63.8623 30.7423 63.1818 31.2396C62.5014 31.7368 61.6116 32.077 60.5124 32.2602C59.4132 32.4172 58.2486 32.5088 57.0185 32.535C57.0185 33.0323 57.0055 33.5557 56.9793 34.1053C56.9793 34.6287 56.9793 35.1652 56.9793 35.7148C56.9793 37.2065 57.084 38.2665 57.2933 38.8946C57.4504 39.3656 57.6597 39.6666 57.9214 39.7975C58.2093 39.9283 58.5626 40.0068 58.9814 40.033C59.4001 40.033 59.9104 40.1115 60.5124 40.2685C61.1143 40.3994 61.5854 40.7265 61.9256 41.25C62.2658 41.7472 62.4359 42.3884 62.4359 43.1735C62.4359 44.0633 61.9649 44.7569 61.0227 45.2541C60.1067 45.7514 58.8636 46 57.2933 46ZM69.1899 26.9606C67.9075 26.9606 66.8214 26.5026 65.9316 25.5866C65.0418 24.6445 64.5969 23.506 64.5969 22.1713C64.5969 21.2815 64.7932 20.4833 65.1857 19.7767C65.6045 19.07 66.1541 18.5074 66.8345 18.0886C67.5411 17.6437 68.3263 17.4213 69.1899 17.4213C70.0274 17.4213 70.7863 17.6437 71.4668 18.0886C72.1734 18.5074 72.7361 19.07 73.1548 19.7767C73.5735 20.4833 73.7829 21.2815 73.7829 22.1713C73.7829 23.0611 73.5735 23.8724 73.1548 24.6052C72.7361 25.3118 72.1734 25.8876 71.4668 26.3325C70.7863 26.7512 70.0274 26.9606 69.1899 26.9606ZM69.1899 46C68.1431 46 67.3579 45.699 66.8345 45.0971C66.3373 44.4952 65.997 43.5792 65.8138 42.3491C65.6568 41.0929 65.5652 39.4834 65.539 37.5206C65.539 35.5578 65.6176 33.9483 65.7746 32.692C65.9578 31.4358 66.3111 30.5198 66.8345 29.9441C67.3579 29.3422 68.1431 29.0412 69.1899 29.0412C70.2367 29.0412 71.0088 29.3422 71.506 29.9441C72.0294 30.5198 72.3828 31.4358 72.566 32.692C72.7492 33.9483 72.8408 35.5578 72.8408 37.5206C72.8669 39.4834 72.7884 41.0929 72.6052 42.3491C72.422 43.5792 72.0687 44.4952 71.5453 45.0971C71.0219 45.699 70.2367 46 69.1899 46ZM88.0008 46C87.0848 46 86.1558 45.8168 85.2136 45.4504C84.2714 45.084 83.4209 44.5475 82.6619 43.8409C81.9291 43.1343 81.3926 42.2837 81.0524 41.2892C80.8169 40.6349 80.6468 39.8236 80.5421 38.8553C80.4374 37.887 80.3589 36.8532 80.3065 35.7541C80.2804 34.6549 80.2673 33.5819 80.2673 32.535C79.2466 32.5088 78.2652 32.4172 77.323 32.2602C76.4071 32.1032 75.6481 31.8153 75.0462 31.3966C74.4704 30.9517 74.1825 30.3105 74.1825 29.473C74.1825 28.4523 74.4573 27.6934 75.0069 27.1961C75.5565 26.6727 76.2893 26.3325 77.2053 26.1755C78.1474 25.9923 79.1681 25.8876 80.2673 25.8614C80.2935 25.0501 80.3589 24.2257 80.4636 23.3883C80.5944 22.5246 80.8038 21.7264 81.0917 20.9936C81.3796 20.2608 81.7852 19.672 82.3086 19.2271C82.832 18.756 83.5125 18.5204 84.35 18.5204C85.4753 18.5204 86.2866 18.8738 86.7839 19.5804C87.3073 20.287 87.6344 21.203 87.7653 22.3283C87.8961 23.4537 87.9485 24.6314 87.9223 25.8614C89.2832 25.8352 90.4871 25.8876 91.5339 26.0184C92.5807 26.1493 93.4051 26.4372 94.0071 26.8821C94.609 27.327 94.91 28.0336 94.91 29.0019C94.91 29.9964 94.5697 30.7423 93.8893 31.2396C93.2088 31.7368 92.319 32.077 91.2199 32.2602C90.1207 32.4172 88.9561 32.5088 87.726 32.535C87.726 33.0323 87.7129 33.5557 87.6868 34.1053C87.6868 34.6287 87.6868 35.1652 87.6868 35.7148C87.6868 37.2065 87.7914 38.2665 88.0008 38.8946C88.1578 39.3656 88.3672 39.6666 88.6289 39.7975C88.9168 39.9283 89.2701 40.0068 89.6888 40.033C90.1076 40.033 90.6179 40.1115 91.2199 40.2685C91.8218 40.3994 92.2929 40.7265 92.6331 41.25C92.9733 41.7472 93.1434 42.3884 93.1434 43.1735C93.1434 44.0633 92.6723 44.7569 91.7302 45.2541C90.8142 45.7514 89.5711 46 88.0008 46ZM102.371 46C101.088 46 99.9105 45.8037 98.8375 45.4112C97.7906 45.0186 96.9531 44.4297 96.325 43.6446C95.6969 42.8333 95.3829 41.8126 95.3829 40.5826C95.3829 39.5358 95.6969 38.6459 96.325 37.9132C96.9531 37.1804 97.7906 36.6177 98.8375 36.2251C99.9105 35.8326 101.088 35.6363 102.371 35.6363C103.129 35.6363 103.823 35.7017 104.451 35.8326C105.079 35.9372 105.511 36.0681 105.747 36.2251C105.747 35.6232 105.498 35.0998 105.001 34.6549C104.503 34.1838 103.64 33.9483 102.41 33.9483C101.834 33.9483 101.376 34.0006 101.036 34.1053C100.722 34.1838 100.434 34.2885 100.172 34.4193C99.9105 34.5502 99.6095 34.668 99.2693 34.7726C98.9552 34.8512 98.5234 34.8904 97.9738 34.8904C97.1625 34.8904 96.5082 34.681 96.011 34.2623C95.5399 33.8174 95.3044 33.15 95.3044 32.2602C95.3044 31.4489 95.5268 30.7554 95.9717 30.1796C96.4428 29.5777 97.0447 29.0804 97.7775 28.6879C98.5103 28.2953 99.2954 28.0074 100.133 27.8242C100.997 27.641 101.821 27.5494 102.606 27.5494C104.935 27.5494 106.833 27.9813 108.298 28.8449C109.764 29.6824 110.85 30.7816 111.557 32.1425C112.263 33.5033 112.616 34.982 112.616 36.5784C112.616 37.4683 112.538 38.2926 112.381 39.0516C112.25 39.8106 112.067 40.3994 111.831 40.8181C112.198 41.1322 112.473 41.4986 112.656 41.9173C112.865 42.3361 112.97 42.7679 112.97 43.2128C112.97 43.9456 112.721 44.5999 112.224 45.1756C111.753 45.7252 111.072 46 110.183 46C109.502 46 108.966 45.8953 108.573 45.6859C108.181 45.4766 107.788 45.2018 107.395 44.8616C106.767 45.228 106.074 45.5158 105.315 45.7252C104.556 45.9084 103.574 46 102.371 46ZM103.156 42.0351C103.758 42.0351 104.203 41.9173 104.49 41.6818C104.804 41.4201 104.961 41.1322 104.961 40.8181C104.961 40.5041 104.804 40.2293 104.49 39.9938C104.203 39.732 103.758 39.6012 103.156 39.6012C102.58 39.6012 102.135 39.732 101.821 39.9938C101.507 40.2293 101.35 40.5041 101.35 40.8181C101.35 41.1322 101.507 41.4201 101.821 41.6818C102.135 41.9173 102.58 42.0351 103.156 42.0351ZM121.703 46C119.4 46 117.568 45.6205 116.207 44.8616C114.846 44.1026 114.166 43.1212 114.166 41.9173C114.166 41.0799 114.441 40.4648 114.99 40.0723C115.566 39.6535 116.246 39.4442 117.032 39.4442C117.66 39.4442 118.118 39.5488 118.406 39.7582C118.72 39.9676 118.994 40.177 119.23 40.3863C119.466 40.5957 119.753 40.7004 120.094 40.7004C120.643 40.7004 120.918 40.5041 120.918 40.1115C120.918 39.5881 120.604 39.2086 119.976 38.9731C119.374 38.7375 118.615 38.4104 117.699 37.9917C116.443 37.3897 115.54 36.6962 114.99 35.9111C114.441 35.0998 114.166 34.2754 114.166 33.4379C114.166 32.4434 114.519 31.5013 115.226 30.6114C115.932 29.7216 116.927 28.9888 118.209 28.4131C119.518 27.8373 121.075 27.5494 122.881 27.5494C124.399 27.5494 125.76 27.7588 126.964 28.1775C128.167 28.5963 129.123 29.172 129.829 29.9048C130.536 30.6114 130.889 31.3966 130.889 32.2602C130.889 33.0715 130.627 33.6865 130.104 34.1053C129.581 34.524 128.9 34.7334 128.063 34.7334C127.592 34.7334 127.212 34.668 126.924 34.5371C126.663 34.3801 126.414 34.2361 126.178 34.1053C125.969 33.9744 125.668 33.909 125.275 33.909C125.066 33.909 124.883 33.9875 124.726 34.1445C124.569 34.2754 124.49 34.4455 124.49 34.6549C124.49 34.8119 124.556 34.9689 124.687 35.1259C124.817 35.283 125.04 35.4138 125.354 35.5185C126.165 35.7802 126.95 36.1204 127.709 36.5392C128.495 36.9317 129.136 37.4552 129.633 38.1094C130.156 38.7375 130.418 39.5488 130.418 40.5433C130.418 42.2445 129.62 43.5792 128.023 44.5475C126.427 45.5158 124.32 46 121.703 46Z" fill="#99DFEB"/>
<path d="M6.51658 46.0393C5.33889 46.0393 4.38364 45.6598 3.65086 44.9008C2.91807 44.1157 2.35539 43.0819 1.96283 41.7996C1.57026 40.491 1.30855 39.0647 1.1777 37.5206C1.04684 35.9765 0.981413 34.4455 0.981413 32.9276C0.981413 31.148 1.21695 29.4076 1.68803 27.7065C2.18528 26.0054 2.93115 24.4743 3.92565 23.1135C4.94632 21.7264 6.2287 20.6272 7.77279 19.8159C9.31688 19.0046 11.1488 18.599 13.2687 18.599C15.4147 18.599 17.3514 19.0439 19.0787 19.9337C20.8321 20.8235 22.2323 22.0928 23.2791 23.7416C24.326 25.3903 24.8494 27.3532 24.8494 29.63C24.8494 31.6714 24.5353 33.4248 23.9072 34.8904C23.2791 36.356 22.4286 37.5599 21.3555 38.502C20.3087 39.418 19.131 40.0984 17.8225 40.5433C16.5401 40.9883 15.2315 41.1976 13.8968 41.1714C12.5621 41.1191 11.319 40.8574 10.1674 40.3863C10.2983 41.0144 10.3637 41.6556 10.3637 42.3099C10.3899 42.9642 10.2852 43.5792 10.0497 44.1549C9.8403 44.7045 9.44773 45.1625 8.87197 45.5289C8.32238 45.8691 7.53725 46.0393 6.51658 46.0393ZM13.6613 35.0474C14.6034 35.0474 15.4147 34.7072 16.0952 34.0268C16.8018 33.3201 17.1551 32.5088 17.1551 31.5929C17.1551 30.6507 16.8018 29.8394 16.0952 29.159C15.4147 28.4523 14.6034 28.099 13.6613 28.099C12.7191 28.099 11.8947 28.4523 11.1881 29.159C10.5077 29.8394 10.1674 30.6507 10.1674 31.5929C10.1674 32.5088 10.5077 33.3201 11.1881 34.0268C11.8947 34.7072 12.7191 35.0474 13.6613 35.0474Z" fill="#E97B0C"/>
<circle cx="13.8648" cy="13.2491" r="2.45353" fill="#EDA61A"/>
<circle cx="26.1325" cy="21.5911" r="1.96283" fill="#99DFEB"/>
<circle cx="22.6976" cy="14.7212" r="3.43494" fill="#3E99B4"/>
</svg>
